<?xml version="1.0" encoding="utf-8"?>
<!-- Generator: Adobe Illustrator 24.1.2, SVG Export Plug-In . SVG Version: 6.00 Build 0)  -->
<svg version="1.1" id="Livello_1" xmlns="http://www.w3.org/2000/svg" xmlns:xlink="http://www.w3.org/1999/xlink" x="0px" y="0px"
	 viewBox="0 0 64 64" style="enable-background:new 0 0 64 64;" xml:space="preserve">
<style type="text/css">
	.st0{fill:#F9F9F9;}
</style>
<path class="st0" d="M18.6,11.9c1.7,0,3.4,0.2,5.1,0.6c1.6,0.3,2.8,0.9,4,1.6c1.1,0.7,2,1.8,2.6,3c0.6,1.4,0.9,3,0.9,4.5
	c0,2-0.4,3.7-1.4,5c-0.9,1.3-2.3,2.4-4,3.3c2.2,0.6,4.1,1.9,5.4,3.7c1.1,1.7,1.9,3.8,1.9,6.2c0,1.8-0.4,3.5-1.1,5.1
	c-0.7,1.4-1.8,2.7-3.1,3.6c-1.4,0.9-2.9,1.6-4.5,2c-1.7,0.4-3.4,0.7-5.1,0.7H0V11.9H18.6z M17.5,27.8c1.6,0,2.8-0.4,3.8-1.1
	s1.4-2,1.4-3.6c0-0.8-0.1-1.6-0.4-2.3c-0.3-0.6-0.7-1-1.3-1.4c-0.6-0.3-1.1-0.6-1.9-0.7c-0.7-0.1-1.4-0.2-2.3-0.2H8.7v9.2L17.5,27.8
	z M17.9,44.6c0.8,0,1.6-0.1,2.4-0.3c1.4-0.3,2.7-1.2,3.4-2.4c0.3-0.7,0.6-1.6,0.6-2.6c0-2-0.6-3.4-1.7-4.4c-1.1-0.9-2.7-1.3-4.5-1.3
	H8.7v10.9L17.9,44.6z M45.3,44.4c1.1,1.1,2.8,1.7,5.1,1.7c1.4,0,2.9-0.4,4.1-1.1c1-0.6,1.7-1.5,2.1-2.6h7c-1.1,3.4-2.8,5.8-5.1,7.4
	c-2.3,1.4-5,2.3-8.2,2.3c-2.1,0-4.2-0.4-6.1-1.1c-1.7-0.7-3.3-1.7-4.5-3.1c-1.3-1.3-2.3-2.9-2.8-4.7c-0.7-2-1.1-4-1-6.1
	c0-2.1,0.3-4.1,1-6c0.7-1.8,1.7-3.4,3-4.8c1.3-1.3,2.8-2.4,4.5-3.1c1.9-0.8,3.9-1.1,6-1.1c2.4,0,4.5,0.4,6.4,1.4
	c1.9,1,3.3,2.1,4.4,3.8c1.2,1.6,2,3.5,2.6,5.4c0.3,2,0.4,4,0.3,6.2H43.3C43.3,40.9,44,42.8,45.3,44.4L45.3,44.4z M54.3,29.5
	c-1-1-2.6-1.6-4.4-1.6c-1.3,0-2.3,0.3-3.1,0.7s-1.4,1-2,1.6c-0.5,0.5-0.8,1.2-1,2c-0.1,0.7-0.3,1.3-0.3,1.9h12.8
	C56.1,32.3,55.4,30.7,54.3,29.5L54.3,29.5z M41.8,14.6h15.9v3.8H41.8V14.6z"/>
</svg>
